<svg xmlns="http://www.w3.org/2000/svg" viewBox="0 0 20.81 25"><defs><style>.cls-1{fill:#e54304;}</style></defs><title>Asset 241</title><g id="Layer_2" data-name="Layer 2"><g id="Layer_1-2" data-name="Layer 1"><path class="cls-1" d="M20.81,10.42A13,13,0,0,1,19,16.62a18,18,0,0,1-6.36,6.87A9.2,9.2,0,0,1,7.46,25a4.35,4.35,0,0,1-4-3.6,6.89,6.89,0,0,1,3.67-7.06A5,5,0,0,0,10,10.48a6.89,6.89,0,0,1,5.65-5.32,4.35,4.35,0,0,1,4.94,3.6C20.72,9.31,20.75,9.86,20.81,10.42Zm-3.13,7.52,0,0-.05,0h0ZM5.06,17v0H4.81l0,0,0,0C4.9,16.81,5,16.8,5.06,17Zm12.21,1.11v0a18.55,18.55,0,0,0,2.16-4.2,9.9,9.9,0,0,0,.46-5,3.6,3.6,0,0,0-4-2.95,6,6,0,0,0-4.51,3.23c-.12.22-.13.36.09.54a2.28,2.28,0,0,1,.74,1.77,5.2,5.2,0,0,1-3.46,4.69,2.21,2.21,0,0,1-2.07-.24c-.25-.19-.38-.08-.54.09a5.8,5.8,0,0,0-1.89,5.3,3.51,3.51,0,0,0,3.5,3,7.74,7.74,0,0,0,3-.64,11.85,11.85,0,0,0,4-2.69C15.65,20,16.44,19,17.27,18.09ZM7,15.22c.75.34.8.34,1.34.2a4.51,4.51,0,0,0,3.08-3.73,1.6,1.6,0,0,0-.57-1.46A5.74,5.74,0,0,1,7,15.22Z"/><path class="cls-1" d="M11,.21a4.07,4.07,0,0,1,2.58,2.14,16.19,16.19,0,0,1,.68,1.72.38.38,0,1,1-.71.25c-.14-.38-.26-.77-.41-1.14A3.67,3.67,0,0,0,9.35.78a5,5,0,0,0-3.1,1.78A7,7,0,0,0,4.89,5.14c-.1.32-.12.6.29.78A2.12,2.12,0,0,1,6.36,7.65a5.15,5.15,0,0,1-1.91,5,2.27,2.27,0,0,1-2.27.51c-.28-.1-.38,0-.5.2a5.62,5.62,0,0,0,.23,6.53c.17.2.38.42.09.65s-.5,0-.7-.2a5,5,0,0,1-1.27-3,6.9,6.9,0,0,1,2.33-6A4.61,4.61,0,0,0,4,7.53,7.62,7.62,0,0,1,4.5,4,6.2,6.2,0,0,1,9.08.07,3.47,3.47,0,0,1,11,.23h0Zm-8.7,12.2a1.82,1.82,0,0,0,1.84-.5,4.48,4.48,0,0,0,1.47-4,1.6,1.6,0,0,0-1-1.38A5.73,5.73,0,0,1,2.33,12.41Z"/></g></g></svg>