<svg xmlns="http://www.w3.org/2000/svg" viewBox="0 0 16.2 25.75"><defs><style>.cls-1{fill:none;stroke:#e54304;stroke-miterlimit:10;stroke-width:0.75px;}</style></defs><title>beverages1</title><g id="Layer_2" data-name="Layer 2"><g id="Layer_1-2" data-name="Layer 1"><path class="cls-1" d="M15.71,7.2l-.31,0H.8l-.28,0"/><path class="cls-1" d="M14.58,14.58l-.36,0H10.49a.52.52,0,0,1-.57-.37A2.57,2.57,0,0,0,8.8,12.82a1.53,1.53,0,0,0-2,.5,5.17,5.17,0,0,0-.55.93.47.47,0,0,1-.49.31H2l-.36,0"/><path class="cls-1" d="M14.08,18c-.12,0-.24,0-.37,0H10.46c-.39,0-.39,0-.54.37a2.89,2.89,0,0,1-.87,1.23,1.52,1.52,0,0,1-2.23-.34,5.5,5.5,0,0,1-.62-1A.32.32,0,0,0,5.85,18H2.43l-.31,0"/><path class="cls-1" d="M3.08,25.28c-.07-.51-.14-1-.2-1.52,0-.29,0-.58-.06-.87s-.14-.63-.19-.95l-.54-3.57c-.16-1.11-.35-2.22-.49-3.34-.1-.75-.27-1.49-.36-2.24S1,11.29.89,10.54Q.67,9,.47,7.51A31.11,31.11,0,0,1,.38,4c0-.22.11-.29.31-.28H15.43c.35,0,.4,0,.39.39,0,.69,0,1.39,0,2.08a16.23,16.23,0,0,1-.22,2.41c-.21,1.34-.39,2.68-.6,4-.1.64-.25,1.27-.36,1.91-.05.34-.07.69-.11,1s-.1.83-.17,1.24c-.15.82-.25,1.64-.37,2.47-.16,1.09-.33,2.19-.5,3.28-.14.9-.29,1.79-.37,2.7"/><path class="cls-1" d="M13.35,22.86l-.37,0c-3.25,0-6.51,0-9.76,0l-.37,0"/><path class="cls-1" d="M.66,25.38l.51,0H13.8l1.85,0"/><path class="cls-1" d="M6.08,1.33V.69C6.08.48,6,.37,5.77.38c-.46,0-.92,0-1.37,0-.23,0-.33.08-.31.31s0,.73.08,1.09"/><path class="cls-1" d="M3.24,3.66a2,2,0,0,1,.67-1.55,2.66,2.66,0,0,1,1.92-.68A2.69,2.69,0,0,1,8.38,2.77a1.71,1.71,0,0,1,.17.89"/></g></g></svg>