<svg xmlns="http://www.w3.org/2000/svg" viewBox="0 0 15.7 25.35"><defs><style>.cls-1{fill:none;stroke:#e54304;stroke-miterlimit:10;stroke-width:0.5px;}</style></defs><title>cereals1</title><g id="Layer_2" data-name="Layer 2"><g id="Layer_1-2" data-name="Layer 1"><path class="cls-1" d="M11.61,13.3A3.47,3.47,0,0,0,10,11.6c-.23-.09-.48-.14-.71-.21-.68,1.26-.36,2.84,1.76,3.75,1.82.79,3.52,0,4.22-2.09A2.4,2.4,0,0,0,13.06,13l-1.18.46"/><path class="cls-1" d="M12.34,11.07a2.6,2.6,0,0,0,2.93-1.65A5.55,5.55,0,0,0,15.42,8c-.42.06-.83.15-1.25.19A2.07,2.07,0,0,0,12.93,9c-.5.47-.71.49-1.18,0a3.29,3.29,0,0,0-2-1c-.41-.07-.55,0-.52.41a2.59,2.59,0,0,0,2.42,2.69l.66.07"/><path class="cls-1" d="M7.28,21.24l-.71.61a2.66,2.66,0,0,0,4.41,0A3.28,3.28,0,0,0,8.2,20.78"/><path class="cls-1" d="M8.14,20.78a.65.65,0,0,1-.52-.72,2.93,2.93,0,0,0-1-2.52c-1.36.87-1.82,2.65-.17,4.29A14.82,14.82,0,0,1,.07,25.11"/><path class="cls-1" d="M14.37,3.2a2.5,2.5,0,0,1-1.25,3.41c-.29.13-.6.24-.93.37l-.25-1.09"/><path class="cls-1" d="M11.75,4.9c-.47-.55-.14-1.14-.06-1.7a2.61,2.61,0,0,0-2.11-3"/><path class="cls-1" d="M11.68,5.3A5.3,5.3,0,0,1,11.09,5a2.75,2.75,0,0,0-2.3-.41c-.47.11-.44.31-.32.61a2.68,2.68,0,0,0,3.74,1.66L12.34,9"/><path class="cls-1" d="M10.5,17.3a1.29,1.29,0,0,0,.52,0,2.92,2.92,0,0,1,2.64.38,2.61,2.61,0,0,1-4.21,1.14"/><path class="cls-1" d="M11.29,15.27l-.89,2.14-.18,0c-.33-1.13-.61-2.31-1.89-2.75a2.58,2.58,0,0,0,1.05,4.13"/><path class="cls-1" d="M9.51.11c-.06.24-.15.48-.19.72a2.62,2.62,0,0,0,2,3.28"/><path class="cls-1" d="M14.37,3a5.72,5.72,0,0,1-.66.32A3.37,3.37,0,0,0,12,5"/><path class="cls-1" d="M12.27,11.2l-.33,2"/><path class="cls-1" d="M9.32,18.88,8.14,20.39"/><path class="cls-1" d="M10.24,17.43l-.86,1.38"/></g></g></svg>