<svg xmlns="http://www.w3.org/2000/svg" viewBox="0 0 23.59 25.38"><defs><style>.cls-1{fill:none;stroke:#e54304;stroke-miterlimit:10;stroke-width:0.75px;}</style></defs><title>Asset 221</title><g id="Layer_2" data-name="Layer 2"><g id="Layer_1-2" data-name="Layer 1"><path class="cls-1" d="M1.84,16a3.77,3.77,0,0,0-.56,5.45,9.76,9.76,0,0,0,6.6,3.34A21.77,21.77,0,0,0,12,25a11.28,11.28,0,0,0,7.77-3.22,3.91,3.91,0,0,0-.3-5.76"/><path class="cls-1" d="M20,12.07a13.72,13.72,0,0,0-.3-1.72,5.1,5.1,0,0,0-3.06-3,15,15,0,0,0-8.61-1A9,9,0,0,0,2.13,9.29c-.92,1.05-.71,2.25-.47,3.44,0,.15.24.27.38.39A11.73,11.73,0,0,0,9.5,16a14.8,14.8,0,0,0,6.89-1,6.93,6.93,0,0,0,3.55-2.84"/><path class="cls-1" d="M1.75,13.12a7.43,7.43,0,0,0,1.94,5.72c2.21,2.73,5.18,3.42,8.6,2.93a8,8,0,0,0,6.63-5.19,4.79,4.79,0,0,0,.54-3.46"/><path class="cls-1" d="M11.13,9.86A2.43,2.43,0,0,0,7.88,8a5.33,5.33,0,0,0-1.9,1c-1.15,1-1,2.16.47,3A9.22,9.22,0,0,0,8,12.55a3.54,3.54,0,0,1,2.4,1.91"/><path class="cls-1" d="M10.17,13.69a4.44,4.44,0,0,1,2.59-.95c1.06-.2,2.18-.24,3-1.15a1.1,1.1,0,0,0-.29-1.73c-1.06-.68-4.32-.57-5.07,1"/><path class="cls-1" d="M19.75,14.84a25.58,25.58,0,0,0,2.86-1.17,1.27,1.27,0,0,0,.4-1.8,1.54,1.54,0,0,0-1.82-.37c-.36.16-.71.37-1.06.57"/><path class="cls-1" d="M6.44,1.34A1.1,1.1,0,0,0,6.6,2.71a1.09,1.09,0,0,1-.06,1.5"/><path class="cls-1" d="M10.46,0c0,.38-.15.89,0,1.13a1.25,1.25,0,0,1,.07,1.65"/><path class="cls-1" d="M14.2,1.34a1,1,0,0,0,.05,1.38c.24.26,0,.92,0,1.4"/></g></g></svg>