<svg xmlns="http://www.w3.org/2000/svg" viewBox="0 0 29.42 25.75"><defs><style>.cls-1{fill:none;stroke:#e54304;stroke-miterlimit:10;stroke-width:0.75px;}</style></defs><title>dishes1</title><g id="Layer_2" data-name="Layer 2"><g id="Layer_1-2" data-name="Layer 1"><path class="cls-1" d="M0,25.32c.79,0,28.5,0,29.05.05a.69.69,0,0,0,.24-.05"/><path class="cls-1" d="M2.61,25.22A8.05,8.05,0,0,1,4.84,19.7a12.6,12.6,0,0,1,6.8-3.79c.53-.12,1.11-.06,1.62-.22a14.58,14.58,0,0,1,2.08-.11,3.35,3.35,0,0,1,1,.13,14.61,14.61,0,0,1,4.74,1.43,10.46,10.46,0,0,1,4.83,4.78,7,7,0,0,1,.74,3.3"/><path class="cls-1" d="M15.19.37c-.23.15-.47.28-.69.45a4.79,4.79,0,0,0-1.39,1.67A2.24,2.24,0,0,0,13.41,5c.48.52,1,1,1.43,1.58a2.78,2.78,0,0,1,.8,1.87,3,3,0,0,1-.75,1.72L14.3,11"/><path class="cls-1" d="M11.34.37A4.13,4.13,0,0,0,9,3.72a2.21,2.21,0,0,0,.69,1.43c.54.61,1.08,1.2,1.58,1.83A2.31,2.31,0,0,1,11.2,10c-.26.32-.5.65-.75,1"/><path class="cls-1" d="M19,.37c-.1,0-.23,0-.3,0A7.72,7.72,0,0,0,17,2.34a2.24,2.24,0,0,0,.4,2.87c.47.51.93,1,1.38,1.57,1.07,1.32.83,2.28-.1,3.45-.2.25-.36.53-.54.79"/><path class="cls-1" d="M13.76,15.51l-.45-1.18a2.78,2.78,0,0,1,0-.35,1.29,1.29,0,0,1,1.58-1,1.25,1.25,0,0,1,1,1.56,7.53,7.53,0,0,1-.39,1"/></g></g></svg>