<svg xmlns="http://www.w3.org/2000/svg" viewBox="0 0 24.24 25"><defs><style>.cls-1{fill:#e54304;}</style></defs><title>herbs1</title><g id="Layer_2" data-name="Layer 2"><g id="Layer_1-2" data-name="Layer 1"><path class="cls-1" d="M12.07,25H5.83c-.61,0-.69-.08-.69-.69s0-.93,0-1.4A.47.47,0,0,0,5,22.52,12,12,0,0,1,1.68,18.6,14.08,14.08,0,0,1,.12,13.79c-.07-.5-.09-1-.12-1.52,0-.36.07-.46.42-.56a26.34,26.34,0,0,1,4.13-.86q1.61-.21,3.21-.36a48.3,48.3,0,0,1,5-.1c.92,0,1.84.09,2.77.14,1.54.1,3.07.27,4.6.52,1.24.2,2.48.44,3.73.66.34.07.42.17.42.52a13.4,13.4,0,0,1-1.49,6,12.29,12.29,0,0,1-2.5,3.47c-.31.3-.65.57-1,.84A.5.5,0,0,0,19,23c0,.48,0,1,0,1.45s-.13.56-.57.56Zm.06-2.91h6.1a1,1,0,0,0,.68-.23,12.07,12.07,0,0,0,1.43-1.34,12.26,12.26,0,0,0,1.85-2.82,12.25,12.25,0,0,0,1-3.18c.11-.6.16-1.21.22-1.81,0-.26,0-.3-.27-.34-1.15-.21-2.3-.44-3.46-.61s-2.45-.3-3.68-.42c-1-.09-2-.17-3-.18-1.35,0-2.7,0-4.05,0-1,0-2,.12-3,.22a32.47,32.47,0,0,0-3.79.6c-.41.09-.82.2-1.23.31-.22.06-.26.11-.24.32,0,.5.09,1,.17,1.49a12.8,12.8,0,0,0,2.28,5.52A11.5,11.5,0,0,0,5.3,21.84a1.18,1.18,0,0,0,.77.26Zm0,2.14H18c.24,0,.27,0,.28-.29v-.61c0-.47,0-.47-.46-.47H6.16c-.21,0-.24.05-.25.27V24c0,.22,0,.25.25.26h5.93Z"/><path class="cls-1" d="M9.15,8.73l1.26-.13c.15,0,.16-.07.08-.2l-1-1.71A2.41,2.41,0,0,0,6.85,5.44a.69.69,0,0,1-.32,0,.35.35,0,0,1-.25-.33.33.33,0,0,1,.24-.35,2,2,0,0,1,.59-.12,3.11,3.11,0,0,1,3,1.59c.25.4.46.83.7,1.24a3.31,3.31,0,0,0,.78.93.4.4,0,0,1-.14.74,7.38,7.38,0,0,1-1.24.26,8,8,0,0,1-2.58-.08,3.74,3.74,0,0,1-1.75-.77,2.15,2.15,0,0,1-.79-1.94A5.77,5.77,0,0,1,5.16,6,.38.38,0,0,0,5,5.62c-.16-.16-.31-.32-.45-.49a.38.38,0,1,1,.55-.52c.21.2.42.42.63.63A10.69,10.69,0,0,0,8.3,7a2.2,2.2,0,0,1,.26.15.38.38,0,0,1,.1.46.34.34,0,0,1-.45.18,3.93,3.93,0,0,1-.68-.34c-.47-.29-.94-.61-1.4-.91l0,0c-.2-.14-.24-.13-.26.11A1.48,1.48,0,0,0,6.38,8a3.09,3.09,0,0,0,1.52.59C8.32,8.66,8.74,8.68,9.15,8.73Z"/><path class="cls-1" d="M23.87,3.9a1.83,1.83,0,0,1-.23.8l-2.07,4-.73,1.4a.75.75,0,0,1-.09.15.37.37,0,0,1-.67-.3,1.25,1.25,0,0,1,.12-.3L22.15,5.9,23,4.3a.81.81,0,0,0,.08-.66.79.79,0,0,0-1.33-.34c-.37.38-.72.79-1.07,1.19l-1.77,2L16.65,9c-.2.22-.39.44-.6.66a.59.59,0,0,1-.28.15.32.32,0,0,1-.33-.14.38.38,0,0,1,0-.44,3.07,3.07,0,0,1,.28-.35L17.44,7l2.19-2.48c.52-.58,1-1.16,1.56-1.72a1.44,1.44,0,0,1,1.51-.41A1.59,1.59,0,0,1,23.87,3.9Z"/><path class="cls-1" d="M11.8,5.4a1.31,1.31,0,0,1-.23-.06.35.35,0,0,1-.21-.41.32.32,0,0,1,.3-.29l.56-.06a2.64,2.64,0,0,0,2-1.4,3.54,3.54,0,0,1,.19-.33.35.35,0,0,1,.43-.11.36.36,0,0,1,.23.39,1.14,1.14,0,0,1-.09.26,3.44,3.44,0,0,1-2.78,2Z"/><path class="cls-1" d="M10.48.45a1.62,1.62,0,0,1,.08-.27A.34.34,0,0,1,11,0a.32.32,0,0,1,.29.27c0,.07,0,.14,0,.21a1.35,1.35,0,0,0,.66,1.13l.17.11a.41.41,0,0,1,.13.54.36.36,0,0,1-.51.12A2.11,2.11,0,0,1,10.54.9C10.52.76,10.5.62,10.48.45Z"/><path class="cls-1" d="M7.6,2.29a2.28,2.28,0,0,1,1.65.62.8.8,0,0,1,.15.21.33.33,0,0,1-.1.43.32.32,0,0,1-.44,0c-.09-.06-.16-.14-.25-.21a1.3,1.3,0,0,0-1.12-.28c-.1,0-.19.05-.29.06a.37.37,0,0,1-.41-.27A.33.33,0,0,1,7,2.46,5.15,5.15,0,0,1,7.6,2.29Z"/><path class="cls-1" d="M18.18,20a.62.62,0,0,1-.61-.59.64.64,0,0,1,.6-.62.63.63,0,0,1,.62.62A.6.6,0,0,1,18.18,20Z"/><path class="cls-1" d="M14.92,20.93a.58.58,0,0,1-.61-.58.59.59,0,0,1,.62-.6.58.58,0,0,1,.59.6A.57.57,0,0,1,14.92,20.93Z"/><path class="cls-1" d="M18,15.28a.61.61,0,0,1,.6.63.64.64,0,0,1-.63.58.63.63,0,0,1-.58-.63A.59.59,0,0,1,18,15.28Z"/><path class="cls-1" d="M20.88,17.11a.58.58,0,0,1-.58.61.6.6,0,1,1,0-1.19A.6.6,0,0,1,20.88,17.11Z"/><path class="cls-1" d="M15.67,18.25a.62.62,0,0,1-.6-.6.59.59,0,0,1,.63-.59.6.6,0,0,1,.59.61A.61.61,0,0,1,15.67,18.25Z"/></g></g></svg>