<svg xmlns="http://www.w3.org/2000/svg" viewBox="0 0 24.09 25.38"><defs><style>.cls-1{fill:none;stroke:#e54304;stroke-miterlimit:10;stroke-width:0.75px;}</style></defs><title>item1</title><g id="Layer_2" data-name="Layer 2"><g id="Layer_1-2" data-name="Layer 1"><path class="cls-1" d="M23.31,6.77l-1.14.65-8,4.33-2,1.11c-.1.05-.15.09-.13.23a3.75,3.75,0,0,1,0,.58V24.78a1.8,1.8,0,0,0,1.14-.21l8.24-4.48L23.31,19a.74.74,0,0,0,.38-.73q0-5.25,0-10.5a1.67,1.67,0,0,0-.39-1.06A2.41,2.41,0,0,0,22.63,6L21,5.1l-5.46-3L12.57.52a1,1,0,0,0-1.1,0Q6.56,3.24,1.64,5.9a2.12,2.12,0,0,0-.81.76c-.07.12-.18.2-.25.31a1.42,1.42,0,0,0-.2.78V18.32A.68.68,0,0,0,.73,19c.52.28,1,.59,1.55.88,1.53.84,3.08,1.66,4.62,2.5l4,2.23a1.69,1.69,0,0,0,1.06.16v.6"/><path class="cls-1" d="M.83,6.77c1.42.79,2.83,1.59,4.25,2.37,2.11,1.16,4.23,2.3,6.35,3.44l.63.34"/></g></g></svg>