<svg xmlns="http://www.w3.org/2000/svg" viewBox="0 0 29.98 25.45"><defs><style>.cls-1{fill:none;stroke:#e54304;stroke-miterlimit:10;stroke-width:0.75px;}</style></defs><title>seafood1</title><g id="Layer_2" data-name="Layer 2"><g id="Layer_1-2" data-name="Layer 1"><path class="cls-1" d="M6.06,7.64c1-2.52,2.43-4.56,5.1-5.5.7-.24.78-.69.13-1.14A4.2,4.2,0,0,0,7.23.8a9.06,9.06,0,0,0-6,6.45,1.73,1.73,0,0,0,.37,1.68,1.24,1.24,0,0,0,1.68.35A1.43,1.43,0,0,1,5,9.55c1.07,1.06,2.13,2.13,3.19,3.19"/><path class="cls-1" d="M23,15.55c-.17-.21-.48-.42-.48-.64-.09-2.5-2.13-3-3.87-3.52a12.93,12.93,0,0,0-7.64.08c-1.71.53-3.36,1.14-3.59,3.31,0,.27-.32.51-.49.77"/><path class="cls-1" d="M21.76,12.74c.77-1.73,2.42-2.52,3.84-3.56a.93.93,0,0,1,.62,0c2.42.53,3.1-.6,2.38-2.66C27.39,3,23.77.22,20.1.5a1.1,1.1,0,0,0-.51.13c-.43.27-.85.58-1.28.88a4.43,4.43,0,0,0,1,.88c2.44,1,3.67,3,4.59,5.25"/><path class="cls-1" d="M29.8,16.44c-1.05-.57-1.84-1.7-3.19-1.57a12.45,12.45,0,0,0-3.17.61A2,2,0,0,0,22.57,17a5.87,5.87,0,0,1-.65,1.8c-1.17,2.67-3.47,3.85-6,4.38-2,.42-3.93-.46-5.62-1.7-.69-.5-1.09-1.64-2.28-1.23a4.77,4.77,0,0,0-3.16,2.5,12.9,12.9,0,0,0-.54,2.67"/><path class="cls-1" d="M27.25,9.55a1.53,1.53,0,0,1-1,2.15c-1.33.55-2.72,1-4.08,1.42"/><path class="cls-1" d="M21.63,20c1.83.69,3.45,1.61,3.94,3.7a10,10,0,0,1,.14,1.66"/><path class="cls-1" d="M8.49,20l-.9-1.92c-.08-.17-.23-.33-.24-.51-.15-1.9-.39-2.31-2.06-2.66A4.48,4.48,0,0,0,.82,16.05a2.48,2.48,0,0,1-.63.39"/><path class="cls-1" d="M21.76,4.32c-.85.09-1.7.16-2.55.26-.35,0-.68.17-1,.25.12.38.14.88.4,1.13,1.37,1.33,2.88,2.34,5,1.81,1.07-.27,1.4.78,2,1.27"/><path class="cls-1" d="M11.68,5A4.18,4.18,0,0,1,7,7.85,2.33,2.33,0,0,0,4.4,9"/><path class="cls-1" d="M22.65,17.85c.55,0,1.11.11,1.66.12a4.25,4.25,0,0,1,4,2.67c.1.24.49.35.74.52"/><path class="cls-1" d="M2.62,9.68c-.36.86.06,1.37.76,1.79a10.77,10.77,0,0,0,4.47,1.65"/><path class="cls-1" d="M6.06,17.46c-.17.17-.33.48-.51.49a4,4,0,0,0-3.84,2.83c0,.12-.33.17-.5.26"/><path class="cls-1" d="M8.36,4.32a8.86,8.86,0,0,0,4.34.13"/></g></g></svg>