<svg xmlns="http://www.w3.org/2000/svg" viewBox="0 0 31.85 25"><defs><style>.cls-1{fill:#e54304;}</style></defs><title>vegetables1</title><g id="Layer_2" data-name="Layer 2"><g id="Layer_1-2" data-name="Layer 1"><path class="cls-1" d="M11.54,25a13.38,13.38,0,0,1-3.93-.61A9.74,9.74,0,0,1,4.84,23,6.49,6.49,0,0,1,3,21.11,4.25,4.25,0,0,1,2.42,19c0-.24,0-.48.06-.71a.2.2,0,0,0-.06-.19A9.18,9.18,0,0,1,.71,15.52,8,8,0,0,1,0,12.77a9.43,9.43,0,0,1,1-5,5.06,5.06,0,0,1,2.45-2.4.2.2,0,0,0,.13-.14A.77.77,0,0,1,4,4.75a2.6,2.6,0,0,1,1-.23c.51,0,1-.06,1.53-.11a7.58,7.58,0,0,0,.93-.17.9.9,0,0,0,.31-.18.07.07,0,0,0,0-.13,5.08,5.08,0,0,0-.47-.23c-.36-.15-.73-.28-1.08-.44A1.17,1.17,0,0,1,5.8,3a.72.72,0,0,1-.1-.84.73.73,0,0,1,.67-.43,1.79,1.79,0,0,1,.76.13c.58.24,1.15.5,1.73.75L10,3c.09,0,.18,0,.27.06A.25.25,0,0,0,10.61,3c.12-.18.22-.36.35-.53A2,2,0,0,1,11.34,2a.61.61,0,0,1,.82,0,1.39,1.39,0,0,1,.34.49c.1.23.19.47.3.7s.15.28.42.18.47-.19.7-.3a3,3,0,0,1,.95-.33,1.1,1.1,0,0,1,1.27.62,2.11,2.11,0,0,1,.17.48.55.55,0,0,1-.32.62,4.75,4.75,0,0,1-.64.2L15,4.76l-.06,0s0,0,.05.06a1.73,1.73,0,0,0,.3.16c.34.13.69.25,1,.4a4.65,4.65,0,0,1,.63.32.74.74,0,0,1,.3.39.18.18,0,0,0,.09.1,4.47,4.47,0,0,1,2,2.1,8.25,8.25,0,0,1,.59,1.41c.06.17.06.17.19,0,.76-.66,1.5-1.34,2.2-2.06l.43-.44a.11.11,0,0,0,0-.14A1.39,1.39,0,0,1,23,5.83a4.79,4.79,0,0,1,1.09-1.11,5.49,5.49,0,0,1,2.21-1,4.73,4.73,0,0,1,2.15,0c.1,0,.13,0,.15-.1a15,15,0,0,1,.55-2A3.83,3.83,0,0,1,29.79.39,1,1,0,0,1,31,.11a1.39,1.39,0,0,1,.74,1,3.83,3.83,0,0,1,0,1.47A13.34,13.34,0,0,1,31,5.07a.24.24,0,0,0,0,.23,5,5,0,0,1,.78,2.07,7,7,0,0,1-.13,2.7,3.4,3.4,0,0,1-.53,1.18,1.65,1.65,0,0,1-.76.57c-.07,0-.12,0-.15.13a13.44,13.44,0,0,1-1.81,3.25,26.73,26.73,0,0,1-3.2,3.68c-.62.6-1.25,1.18-1.9,1.74a16.11,16.11,0,0,1-2.55,1.77,19.88,19.88,0,0,1-4.77,2,16.68,16.68,0,0,1-2.7.51C12.7,24.94,12.12,25,11.54,25Zm0-.78a15.52,15.52,0,0,0,2.26-.17c.56-.08,1.12-.21,1.67-.34A19.11,19.11,0,0,0,21,21.38,17.55,17.55,0,0,0,23.2,19.7,36.36,36.36,0,0,0,25.93,17a26.59,26.59,0,0,0,1.9-2.34A13.58,13.58,0,0,0,29.36,12c0-.08,0-.12-.07-.14a4.57,4.57,0,0,1-1.23-.51,1.6,1.6,0,0,1-.77-1c-.05-.23-.11-.45-.15-.68A.85.85,0,0,0,26.46,9L25,8.6a5.17,5.17,0,0,1-1.64-.74c-.06-.05-.09,0-.13,0-.32.32-.63.65-1,1a31.39,31.39,0,0,1-3.09,2.68A22.59,22.59,0,0,1,15,14.09a13,13,0,0,1-2.91,1,11.39,11.39,0,0,1-1.15.17,5.13,5.13,0,0,1-1.66-.09,5.61,5.61,0,0,0-3.12.13A4.67,4.67,0,0,0,3.84,17a3.28,3.28,0,0,0-.66,2,3.4,3.4,0,0,0,.49,1.73,5.77,5.77,0,0,0,1.54,1.65,9,9,0,0,0,2.22,1.19A11.87,11.87,0,0,0,11.56,24.22Zm-1.15-9.71a6.94,6.94,0,0,0,1.31-.12A11.74,11.74,0,0,0,14,13.68a19.35,19.35,0,0,0,1.78-.85A24.69,24.69,0,0,0,19,10.67c.1-.07.25-.14.28-.24s0-.24-.08-.36a7.14,7.14,0,0,0-1.07-2.18A3.44,3.44,0,0,0,17.11,7a.17.17,0,0,0-.22,0,1.05,1.05,0,0,1-.54.26,1.67,1.67,0,0,1-.77,0c-.48-.13-.94-.28-1.41-.42l-.8-.19a.36.36,0,0,0-.42.23c-.1.22-.19.44-.28.66a2.82,2.82,0,0,1-.4.77.82.82,0,0,1-.89.3,1.06,1.06,0,0,1-.52-.33,4,4,0,0,1-.58-.89c-.16-.3-.31-.6-.47-.89a.76.76,0,0,0-.57-.38,3.62,3.62,0,0,0-1.09,0c-.67.11-1.33.24-2,.34a5.91,5.91,0,0,1-1.26.11,1.41,1.41,0,0,1-1.08-.41c0-.06-.09,0-.13,0a4.08,4.08,0,0,0-1.3,1,6.11,6.11,0,0,0-1.2,2.23,9.3,9.3,0,0,0-.4,2.09,7.49,7.49,0,0,0,1.36,5.09c.17.25.36.48.54.71.06.07.09.07.12,0l0,0a4.66,4.66,0,0,1,1.4-1.71,6.06,6.06,0,0,1,4.95-1.13A5.82,5.82,0,0,0,10.41,14.51ZM31.09,8.17c0-.2-.05-.57-.12-.94a4,4,0,0,0-.67-1.6,2.72,2.72,0,0,0-1.11-.85,4.19,4.19,0,0,0-3-.32A5.08,5.08,0,0,0,23.81,6a1.42,1.42,0,0,0-.28.41.52.52,0,0,0,.11.69,1.64,1.64,0,0,0,.25.21,3.42,3.42,0,0,0,1,.46c.59.18,1.18.34,1.78.51a1.91,1.91,0,0,1,.67.33,1.69,1.69,0,0,1,.54,1c.06.23.11.46.17.69a.58.58,0,0,0,.25.36,3.19,3.19,0,0,0,1.22.54.89.89,0,0,0,.95-.34,1.76,1.76,0,0,0,.26-.44A6,6,0,0,0,31.09,8.17ZM16,6.54l.34-.08c.05,0,.08-.07.11-.1s-.06-.08-.1-.09L15.56,6c-.3-.12-.61-.24-.9-.38a1,1,0,0,1-.51-.5.66.66,0,0,1,.3-.9A4.44,4.44,0,0,1,15,4l.45-.09c.06,0,.06,0,0-.09-.08-.23-.16-.29-.4-.28a1,1,0,0,0-.35.06l-1.21.5a2.25,2.25,0,0,1-.51.13.69.69,0,0,1-.69-.3,5,5,0,0,1-.32-.6c-.09-.18-.16-.36-.24-.54s-.07-.08-.11,0L11.5,3c-.13.19-.25.38-.38.56a.82.82,0,0,1-.74.32,2.31,2.31,0,0,1-.78-.16c-.6-.26-1.2-.54-1.8-.79-.36-.16-.73-.29-1.09-.43a.45.45,0,0,0-.2,0l-.12,0s.05.06.08.07a1.34,1.34,0,0,0,.23.13L7.48,3a2.91,2.91,0,0,1,.75.37.78.78,0,0,1,.18,1.13,1.19,1.19,0,0,1-.34.33,1.77,1.77,0,0,1-.67.26,9.19,9.19,0,0,1-1.56.17l-.91.07a2.8,2.8,0,0,0-.5.12c-.11,0-.13.11,0,.19a.62.62,0,0,0,.25.14,2.67,2.67,0,0,0,1.09,0c.72-.11,1.43-.25,2.15-.37a5,5,0,0,1,1.4-.05,1.54,1.54,0,0,1,1.07.59,3.31,3.31,0,0,1,.29.47l.53,1a1.62,1.62,0,0,0,.3.39c.12.13.19.11.27,0A5.11,5.11,0,0,0,12,7.24c.12-.26.22-.54.35-.79a1.06,1.06,0,0,1,1.06-.6,2,2,0,0,1,.55.09l1.35.42C15.5,6.43,15.76,6.48,16,6.54Zm15.08-4.9a2.68,2.68,0,0,0,0-.35.67.67,0,0,0-.22-.41c-.19-.16-.29-.16-.45,0a2.74,2.74,0,0,0-.41.7,14.52,14.52,0,0,0-.66,2.25c0,.1,0,.14.1.19.29.15.57.31.85.47.1.06.11.06.14,0,.16-.49.34-1,.48-1.49A4.75,4.75,0,0,0,31.07,1.64Z"/><path class="cls-1" d="M11.15,22a6.94,6.94,0,0,1-2.77-.54,8.26,8.26,0,0,1-1.33-.75.37.37,0,0,1-.1-.5.36.36,0,0,1,.49-.14A5.58,5.58,0,0,1,8,20.4a5.59,5.59,0,0,0,2.17.77,8,8,0,0,0,2.63-.06c.5-.09,1-.21,1.47-.32a.39.39,0,0,1,.46.18.37.37,0,0,1-.09.46.56.56,0,0,1-.17.09A11.77,11.77,0,0,1,11.15,22Z"/></g></g></svg>