<svg xmlns="http://www.w3.org/2000/svg" viewBox="0 0 27.67 25.75"><defs><style>.cls-1{fill:none;stroke:#e54304;stroke-miterlimit:10;stroke-width:0.75px;}</style></defs><title>coffee_beans1</title><g id="Layer_2" data-name="Layer 2"><g id="Layer_1-2" data-name="Layer 1"><path class="cls-1" d="M10.55,23.47c.16.83.81,1.2,1.48,1.52a3.89,3.89,0,0,0,2.54.29c.64-.14,1.31-.16,2-.29a12.79,12.79,0,0,0,4.3-1.79,13.54,13.54,0,0,0,3-2.57,13.34,13.34,0,0,0,3.12-6,12.68,12.68,0,0,0,.32-2.75,4,4,0,0,0-.39-1.77,2.71,2.71,0,0,0-.51-.57c-.05-.06-.14-.1-.16-.17a2,2,0,0,0-1.14-1.2,4.41,4.41,0,0,0-2.57-.49,17.83,17.83,0,0,0-2.91.38A13.83,13.83,0,0,0,16.2,9.38c-.37.2-.75.38-1.11.58-.12.06-.18.21-.28.29-.43.38-.88.74-1.31,1.13A12.41,12.41,0,0,0,11,14.62a12.07,12.07,0,0,0-1.26,3.54c-.06.29-.36.48-.25.85a2.91,2.91,0,0,1,0,.89,1.87,1.87,0,0,1,0,.41c0,.15-.15.31-.12.43a8.25,8.25,0,0,0,.53,2.19,1.36,1.36,0,0,0,.57.52"/><path class="cls-1" d="M9.41,18.76a1.46,1.46,0,0,1-.78-.6A5.75,5.75,0,0,1,7.3,15a7.7,7.7,0,0,1,.34-3.16c.28-.82.57-1.64.79-2.48a6.29,6.29,0,0,0-1.31-6,9.22,9.22,0,0,0-2.42-2A2.28,2.28,0,0,1,4.24,1,.83.83,0,0,0,3.31.83a4.11,4.11,0,0,0-1.9,1.94A10.82,10.82,0,0,0,.48,6.36,14.86,14.86,0,0,0,.38,8,13.22,13.22,0,0,0,.69,10.8a14.37,14.37,0,0,0,2.43,5.37,12.72,12.72,0,0,0,3.79,3.48c.61.36,1.27.65,1.91,1a1.44,1.44,0,0,0,.51.09"/><path class="cls-1" d="M26.26,9.52a1.63,1.63,0,0,0-.44,1.06,6.2,6.2,0,0,1-4.06,5,8.86,8.86,0,0,1-2.7.52c-.73,0-1.46,0-2.18.14a6.53,6.53,0,0,0-4.14,2.11,8,8,0,0,0-1.82,4.15,1.55,1.55,0,0,1-.39.93"/><path class="cls-1" d="M15,10c-.15-.39-.31-.76-.43-1.15A13,13,0,0,0,11.82,4,12.53,12.53,0,0,0,6.77.67a4,4,0,0,0-2-.25A.93.93,0,0,0,4.1.8"/></g></g></svg>