<svg xmlns="http://www.w3.org/2000/svg" viewBox="0 0 25.67 25.48"><defs><style>.cls-1{fill:none;stroke:#e54304;stroke-miterlimit:10;stroke-width:0.75px;}</style></defs><title>fruits1</title><g id="Layer_2" data-name="Layer 2"><g id="Layer_1-2" data-name="Layer 1"><path class="cls-1" d="M21.11,17.36c-.1,1.92-.28,3.82-1.66,5.35A6.5,6.5,0,0,1,15.31,25a6.72,6.72,0,0,1-7.67-4.64,7,7,0,0,1,2.92-7.9,6.9,6.9,0,0,1,10.2,3.76c.11.3.24.6.35.91"/><path class="cls-1" d="M12.28,7.77A15.39,15.39,0,0,0,8.56,6a6.47,6.47,0,0,0-5.34,1.2A6.75,6.75,0,0,0,.39,12.41a6.32,6.32,0,0,0,1,3.92,7.22,7.22,0,0,0,4.92,3.24,3.25,3.25,0,0,0,.81-.09"/><path class="cls-1" d="M20.86,4.34A5.61,5.61,0,0,0,19.53.62.59.59,0,0,0,19,.52a8.51,8.51,0,0,0-3.22,3.22.62.62,0,0,0,0,.58c.1.12.38.13.58.11a11.75,11.75,0,0,1,3-.22A6.58,6.58,0,0,1,25.2,10a6.55,6.55,0,0,1-4,7.27"/><path class="cls-1" d="M17,16.75c-.17-.53-.45-1-.15-1.63.21-.47-.16-1-.86-1a2.67,2.67,0,0,1-1.65-.35.86.86,0,0,0-1.25.67,1.73,1.73,0,0,1-.73,1.21c-.59.47-.39,1,.09,1.41a9.64,9.64,0,0,1,1,1.11c.34.46.81.6,1.2.28a2.32,2.32,0,0,1,1.63-.74c.23,0,.47-.55.71-.86"/><path class="cls-1" d="M20.86,7.47c-.64.13-1.27.3-1.92.39s-.79.49-.8,1a8.15,8.15,0,0,1,0,1.31c-.14.78.2,1.21,1,1.33a2.44,2.44,0,0,1,1.2.51c.69.6,1,.09,1.43-.33a7.22,7.22,0,0,0,.89-1.11c.18-.29.4-.76.29-1a14.87,14.87,0,0,0-1.39-2c-.08-.1-.33-.08-.5-.11"/><path class="cls-1" d="M14.71,5.05A14.32,14.32,0,0,0,7.13.41a3.38,3.38,0,0,0-.9,0"/><path class="cls-1" d="M6.13.1c-.38,1.88.2,3.66.6,5.45"/><path class="cls-1" d="M15.61,4.44,12.69,7.27a.78.78,0,0,0,0,1.21A5.84,5.84,0,0,1,14,11.3"/><path class="cls-1" d="M4.61,9.08c-.6.71-1.25,1.38-1.78,2.14-.14.2,0,.71.19,1a5.82,5.82,0,0,0,1.21,1.4c.29.22,1,.35,1.15.19.41-.52,1-.48,1.46-.56.83-.13.87-.67.81-1.32a4.9,4.9,0,0,1,0-1.21c.09-.57-.4-1.35-.9-1.18a1.62,1.62,0,0,1-1.64-.43c-.09-.06-.26,0-.4,0"/></g></g></svg>