<svg xmlns="http://www.w3.org/2000/svg" viewBox="0 0 31.39 25.75"><defs><style>.cls-1{fill:none;stroke:#e54304;stroke-miterlimit:10;stroke-width:0.75px;}</style></defs><title>nuts</title><g id="Layer_2" data-name="Layer 2"><g id="Layer_1-2" data-name="Layer 1"><path class="cls-1" d="M19.78,16.86a35.64,35.64,0,0,0,3.74,2.25,5.55,5.55,0,0,0,6.61-1.17c1.54-1.56.87-4.19-.43-5.28a28.89,28.89,0,0,1-3.27-3.18A3.8,3.8,0,0,1,25.75,6a5.35,5.35,0,0,0-.89-4.35A3,3,0,0,0,21.41.5a6.43,6.43,0,0,0-5.06,6,38,38,0,0,0,.07,4"/><path class="cls-1" d="M16.33,10.5c-1.15.16-2.36.15-3.26,1a14,14,0,0,0-1.55,1.81,7.1,7.1,0,0,1-6.73,2.87C2.18,16,.83,16.9.45,18.78a4.65,4.65,0,0,0,1,3.71c2,2.61,4.68,3.16,7.72,2.77a14.66,14.66,0,0,0,7.06-2.89,10.86,10.86,0,0,0,3-4.68,5.38,5.38,0,0,0-.86-5.62,9.24,9.24,0,0,0-1.88-1.48"/><path class="cls-1" d="M23.59,5.87a13.62,13.62,0,0,0-.45,3,4,4,0,0,0,2.36,3.2c.19.11.3.35.46.53"/><path class="cls-1" d="M12.87,15.5a4.21,4.21,0,0,1-4.63,3c-.36-.07-.73-.12-1.09-.18"/></g></g></svg>