<svg xmlns="http://www.w3.org/2000/svg" viewBox="0 0 25.36 25.38"><defs><style>.cls-1{fill:none;stroke:#e54304;stroke-miterlimit:10;stroke-width:0.75px;}</style></defs><title>beans1</title><g id="Layer_2" data-name="Layer 2"><g id="Layer_1-2" data-name="Layer 1"><path class="cls-1" d="M14.63,8.39a1.35,1.35,0,0,0,.1-.86,3.35,3.35,0,0,1,.33-1.92,4.36,4.36,0,0,1,3.31-2.48,1.51,1.51,0,0,0,.77-.32.16.16,0,0,1,.13,0L20,3a2.05,2.05,0,0,0,.48.1c.08,0,.18-.1.23-.18.31-.41.58-.87.92-1.25A3.9,3.9,0,0,1,24.14.38a.4.4,0,0,1,.26,0A1.38,1.38,0,0,1,25,1.5a.33.33,0,0,1-.11.21l-1,.8a4.24,4.24,0,0,0-1,1.2,1.31,1.31,0,0,0,0,1.31,7.69,7.69,0,0,1,.73,1.64,5,5,0,0,1-1.34,5,3.38,3.38,0,0,1-.46.37,1.28,1.28,0,0,0-.52,1.31c0,.47.13.93.15,1.39a4.11,4.11,0,0,1-.8,2.62A6.7,6.7,0,0,1,19,19a1,1,0,0,0-.46.88,5.74,5.74,0,0,1-.69,2.4,4,4,0,0,1-2.88,2,10.27,10.27,0,0,1-1.66.17,12.42,12.42,0,0,0-3.26.48,1.29,1.29,0,0,1-.48.05c-.3,0-.45.13-.45.44"/><path class="cls-1" d="M19.17,2.75a.84.84,0,0,0-.54-.53A4.47,4.47,0,0,0,15.88,2a3.62,3.62,0,0,0-2.64,2.4,4.29,4.29,0,0,1-.58,1.15,2.15,2.15,0,0,1-1.56.78,9.61,9.61,0,0,0-1.2.16A2.81,2.81,0,0,0,8.09,8c-.22.39-.39.8-.57,1.2s-.16.41-.58.4a4.16,4.16,0,0,0-2.14.49,3.72,3.72,0,0,0-1.61,2,10.88,10.88,0,0,1-1.63,3c-.2.24-.43.46-.63.69s-.24.32-.39.53l-.5.06"/><path class="cls-1" d="M.63,16.27a3.43,3.43,0,0,0,.56.31A21.34,21.34,0,0,1,4.48,18a17.15,17.15,0,0,0,1.71.72A6,6,0,0,0,9,18.94l.48,0"/><path class="cls-1" d="M9.37,24.89A2.68,2.68,0,0,1,9.5,23.8c.06-.61.13-1.23.15-1.84s0-1.41,0-2.11a1.87,1.87,0,0,0-.09-.91v0A7.57,7.57,0,0,1,10.27,17a5,5,0,0,1,1.53-1.3c.34-.2.32-.21.3-.59,0-.61,0-1.23,0-1.84a2.24,2.24,0,0,1,.19-.83,3.07,3.07,0,0,1,1.53-1.82,1.93,1.93,0,0,0,.93-1,1.22,1.22,0,0,0,.08-.9.46.46,0,0,0-.21-.26,9.39,9.39,0,0,0-1-.28A2.54,2.54,0,0,0,10.59,10a2.47,2.47,0,0,0,.86,2.56,2,2,0,0,0,.56.25"/><path class="cls-1" d="M16.32,20.17a.78.78,0,0,1-.11.59,3.68,3.68,0,0,1-2,1.57,3.53,3.53,0,0,1-1.55.2"/><path class="cls-1" d="M6.88,11.91A2.55,2.55,0,0,0,5,13.06a2.56,2.56,0,0,0,2.3,4A2.51,2.51,0,0,0,9.6,15,2.55,2.55,0,0,0,8.27,12.2a2.78,2.78,0,0,0-1.36-.29"/></g></g></svg>